<?xml version="1.0" encoding="utf-8"?>
<!-- Generator: Adobe Illustrator 21.0.0, SVG Export Plug-In . SVG Version: 6.00 Build 0)  -->
<svg version="1.1" id="Logo" xmlns="http://www.w3.org/2000/svg" xmlns:xlink="http://www.w3.org/1999/xlink" x="0px" y="0px"
	 viewBox="0 0 186.2 315.8" style="enable-background:new 0 0 186.2 315.8;" xml:space="preserve">
<style type="text/css">
	.st0{font-family:'Realvirtue';}
	.st1{font-size:101px;}
	.st2{fill:#DD0031;}
	.st3{fill:#C3002F;}
	.st4{fill:#F89D03;}
	.st5{fill:#E88C07;}
	.st6{opacity:0.64;fill:#70470B;enable-background:new    ;}
</style>
<text id="BSGM" transform="matrix(1 0 0 1 28.76 273)" class="st0 st1">bsgm</text>
<g id="Icon">
	<g id="Angular">
		<polygon id="Symbol" class="st2" points="93.1,0 93.1,0 93.1,0 0,33.2 14.2,156.3 93.1,200 93.1,200 93.1,200 172,156.3 
			186.2,33.2 		"/>
		<polygon id="Shadow_1_" class="st3" points="93.1,0 93.1,22.2 93.1,22.1 93.1,123.4 93.1,123.4 93.1,200 93.1,200 172,156.3 
			186.2,33.2 		"/>
	</g>
	<g id="Roads">
		<polygon id="Road_Left" class="st4" points="21.7,25.5 93.1,61 93.1,200 79.2,192.3 79.2,79 0.8,40.1 0.1,33 		"/>
		<polygon id="Road_Right" class="st5" points="164.5,25.5 93.1,61 93.1,200 107,192.3 107,79 185.4,40.1 186.1,33 		"/>
	</g>
	<g id="Lightning_Pin">
		<polygon id="Shadow" class="st6" points="133,50.4 141.8,54 127.5,59 134.5,62.6 104,67.7 121.3,60.8 117.6,57.9 		"/>
		<polygon id="Pin" class="st4" points="114.8,11.9 132.9,7 121.6,29.2 137,25.8 103.1,68 115.9,38.6 105.7,39.4 		"/>
	</g>
</g>
</svg>
