<svg xmlns="http://www.w3.org/2000/svg" viewBox="0 0 186.2 200"><defs><style>.cls-1{fill:#dd0031;}.cls-2{fill:#c3002f;}.cls-3{fill:#f89d03;}.cls-4{fill:#e88c07;}.cls-5{fill:#70470b;opacity:0.64;isolation:isolate;}</style></defs><title>Asset 164x64</title><g id="Layer_2" data-name="Layer 2"><g id="Logo"><g id="Icon"><g id="Angular"><polygon id="Symbol" class="cls-1" points="93.1 0 93.1 0 93.1 0 0 33.2 14.2 156.3 93.1 200 93.1 200 93.1 200 172 156.3 186.2 33.2 93.1 0"/><polygon id="Shadow" class="cls-2" points="93.1 0 93.1 22.2 93.1 22.1 93.1 123.4 93.1 123.4 93.1 200 93.1 200 172 156.3 186.2 33.2 93.1 0"/></g><g id="Roads"><polygon id="Road_Left" data-name="Road Left" class="cls-3" points="21.68 25.47 93.1 61 93.1 200 79.19 192.29 79.19 79 0.79 40.06 0.1 33 21.68 25.47"/><polygon id="Road_Right" data-name="Road Right" class="cls-4" points="164.52 25.47 93.1 61 93.1 200 107.01 192.29 107.01 79 185.41 40.06 186.1 33 164.52 25.47"/></g><g id="Lightning_Pin" data-name="Lightning Pin"><polygon id="Shadow-2" data-name="Shadow" class="cls-5" points="132.98 50.4 141.76 54.02 127.47 58.99 134.52 62.61 104.03 67.7 121.28 60.78 117.59 57.94 132.98 50.4"/><polygon id="Pin" class="cls-3" points="114.77 11.89 132.85 7 121.55 29.22 136.99 25.83 103.1 68 115.9 38.63 105.74 39.38 114.77 11.89"/></g></g></g></g></svg>